{"title":"Taylor Swift - You Belong With Me [1920x1080p] Palladia Hd","uid":5915132,"size":426477436,"categoryP":"video","categoryS":"music_videos","magnet":"?xt=urn:btih:f8ace7d7d59589fb504738147258264f806ea75f&amp;dn=Taylor+Swift+-+You+Belong+With+Me+%5B1920x1080p%5D+Palladia+Hd&amp;tr=udp%3A%2F%2Ftracker.openbittorrent.com%3A80&amp;tr=udp%3A%2F%2Fopen.demonii.com%3A1337&amp;tr=udp%3A%2F%2Ftracker.coppersurfer.tk%3A6969&amp;tr=udp%3A%2F%2Fexodus.desync.com%3A6969","seeders":2,"leechers":1,"uploader":"ankurgow3","files":1,"time":1288190050,"description":"Taylor Swift - You Belong With Me\n\n(1920x1080p)\n\nInfo:\n\nVideo\nID                                             : 17 (0x11)\nMenu ID                                  : 1 (0x1)\nFormat                                   : MPEG Video\nFormat version                    : Version 2\nFormat profile                      : Main@High\nFormat settings, BVOP      : Yes\nFormat settings, Matrix     : Default\nCodec ID                                : 2\nDuration                                : 3mn 46s\nBit rate mode                       : Variable\nBit rate                                  : 13.9 Mbps\nNominal bit rate                  : 22.0 Mbps\nWidth                                     : 1 920 pixels\nHeight                                    : 1 080 pixels\nDisplay aspect ratio           : 16:9\nFrame rate                           : 29.970 fps\nColor space                         : YUV\nChroma subsampling       : 4:2:0\nBit depth                              : 8 bits\nBits/(Pixel*Frame)             : 0.224\nStream size                        : 376 MiB (92%)\n\nAudio\nID                                           : 20 (0x14)\nMenu ID                               : 1 (0x1)\nFormat                                 : AC-3\nFormat/Info                         : Audio Coding 3\nMode extension                : CM (complete main)\nCodec ID                             : 129\nDuration                              : 3mn 46s\nBit rate mode                    : Constant\nBit rate                                : 384 Kbps\nChannel(s)                         : 2 channels\nChannel positions            : Front: L R\nSampling rate                   : 48.0 KHz\nBit depth                             : 16 bits\nVideo delay                        : -659ms\nStream size                       : 10.4 MiB (3%)\nLanguage                           : English\n\n\nPLEASE SEED..........................\n\nFollow Me:\n\nScreen:\n\n&lt;img&gt;http://img713.imageshack.us/img713/4518/vlcsnap2010100113h27m12.png&lt;/img&gt;","torrent":{"xt":"urn:btih:f8ace7d7d59589fb504738147258264f806ea75f","amp;dn":"Taylor+Swift+-+You+Belong+With+Me+%5B1920x1080p%5D+Palladia+Hd","amp;tr":["udp%3A%2F%2Ftracker.openbittorrent.com%3A80","udp%3A%2F%2Fopen.demonii.com%3A1337","udp%3A%2F%2Ftracker.coppersurfer.tk%3A6969","udp%3A%2F%2Fexodus.desync.com%3A6969"],"infoHash":"f8ace7d7d59589fb504738147258264f806ea75f","infoHashBuffer":{"type":"Buffer","data":[248,172,231,215,213,149,137,251,80,71,56,20,114,88,38,79,128,110,167,95]},"announce":[],"urlList":[]}}